<?xml version="1.0" encoding="UTF-8"?>
<!DOCTYPE svg PUBLIC "-//W3C//DTD SVG 1.1//EN" "http://www.w3.org/Graphics/SVG/1.1/DTD/svg11.dtd">
<!-- Creator: CorelDRAW -->
<svg xmlns="http://www.w3.org/2000/svg" xml:space="preserve" width="4.4026mm" height="4.572mm" version="1.1" style="shape-rendering:geometricPrecision; text-rendering:geometricPrecision; image-rendering:optimizeQuality; fill-rule:evenodd; clip-rule:evenodd"
viewBox="0 0 440.26 457.2"
 xmlns:xlink="http://www.w3.org/1999/xlink"
 xmlns:xodm="http://www.corel.com/coreldraw/odm/2003">
 <defs>
  <style type="text/css">
   <![CDATA[
    .str0 {stroke:#FAED1F;stroke-width:16.93;stroke-miterlimit:22.9256}
    .fil0 {fill:#FAED1F}
    .fil2 {fill:#145251}
    .fil1 {fill:#145251;fill-rule:nonzero}
   ]]>
  </style>
 </defs>
 <g id="Camada_x0020_1">
  <metadata id="CorelCorpID_0Corel-Layer"/>
  <rect class="fil0 str0" x="16.93" y="17.58" width="406.4" height="422.04" rx="93.79" ry="93.79"/>
  <g id="_1334980312656">
   <path class="fil1" d="M197.98 124.99l0 2.71c0,3.88 4.77,5.7 8.71,5.7 5.17,0 9.03,-2.99 9.03,-8 0,-5.18 -4.02,-6.83 -8,-8.33 -3.35,-1.29 -6.35,-2.47 -6.35,-5.86 0,-3.03 2.44,-4.61 5.6,-4.61 2.48,0 5.36,0.97 5.36,2.79l0 2.1 2.64 0 0 -3.03c0,-2.91 -4.06,-4.45 -8,-4.45 -4.53,0 -8.44,2.43 -8.44,7.4 0,4.97 3.79,6.47 7.41,7.88 3.59,1.42 6.94,2.63 6.94,6.39 0,3.32 -2.56,5.14 -6.19,5.14 -3.19,0 -6.07,-1.34 -6.07,-3.76l0 -2.07 -2.64 0zm24.91 -2.54c0,2.7 0.48,4.89 1.7,6.67 1.77,2.75 5.04,4.28 8.95,4.28 3.82,0 7.01,-1.49 8.87,-4.24 1.14,-1.74 1.77,-4.09 1.77,-6.71l0 -15.61 3.63 0 0 -2.34 -10.02 0 0 2.34 3.63 0 0 15.48c0,2.03 -0.39,3.76 -1.22,5.18 -1.22,2.14 -3.67,3.32 -6.66,3.32 -3,0 -5.36,-1.14 -6.66,-3.2 -0.83,-1.33 -1.23,-3.15 -1.23,-5.21l0 -15.57 3.63 0 0 -2.34 -10.01 0 0 2.34 3.62 0 0 15.61zm28.35 10.47l10.01 0 0 -2.35 -3.63 0 0 -8.89 6.27 0c1.54,0 2.8,-0.12 4.1,-0.57 3.12,-1.13 5.05,-4.16 5.05,-8.08 0,-3.68 -1.74,-6.47 -4.46,-7.72 -1.3,-0.65 -3.03,-0.81 -4.73,-0.81l-12.61 0 0 2.34 3.62 0 0 23.73 -3.62 0 0 2.35zm6.38 -13.67l0 -12.33 6 0c1.45,0 2.72,0.25 3.74,0.69 1.85,0.97 2.88,2.83 2.88,5.42 0,2.79 -1.22,4.81 -3.27,5.66 -0.91,0.36 -2.01,0.56 -3.35,0.56l-6 0zm18.93 -0.72c0,8.32 6.26,14.87 14.11,14.87 7.88,0 14.15,-6.55 14.15,-14.87 0,-8.21 -6.27,-14.52 -14.15,-14.52 -7.85,0 -14.11,6.31 -14.11,14.52zm2.87 0c0,-6.8 5.05,-11.93 11.24,-11.93 6.19,0 11.27,5.13 11.27,11.93 0,6.95 -5.08,12.29 -11.27,12.29 -6.19,0 -11.24,-5.34 -11.24,-12.29zm29.65 14.39l9.97 0 0 -2.35 -3.59 0 0 -9.7 3.99 0c1.77,0 2.4,0.36 3.11,1.74l4.65 8.16c0.99,1.78 1.42,2.15 3.83,2.15l1.49 0 0 -2.35 -0.79 0c-1.06,0 -1.53,-0.12 -1.97,-0.93l-4.61 -8.08c-0.19,-0.45 -0.43,-0.69 -0.63,-0.89l-0.32 -0.28 0 -0.09c3.79,-0.68 6.15,-3.8 6.15,-8.04 0,-3.76 -1.77,-6.11 -4.49,-7.12 -1.54,-0.52 -3.04,-0.64 -4.93,-0.64l-11.86 0 0 2.34 3.62 0 0 23.73 -3.62 0 0 2.35zm6.38 -14.48l0 -11.52 5.4 0c1.42,0 2.72,0.16 3.67,0.53 1.93,0.77 3.04,2.42 3.04,5.01 0,3.68 -2.25,5.98 -5.6,5.98l-6.51 0zm26.06 14.48l10.01 0 0 -2.35 -3.62 0 0 -23.65 7.72 0 0 4.61 2.53 0 0 -7.03 -23.26 0 0 7.03 2.48 0 0 -4.61 7.77 0 0 23.65 -3.63 0 0 2.35zm20.03 0l20.3 0 0 -6.11 -2.49 0 0 3.68 -11.43 0 0 -10.67 10.49 0 0 -2.43 -10.49 0 0 -10.47 10.68 0 0 3.48 2.53 0 0 -5.9 -19.59 0 0 2.34 3.62 0 0 23.73 -3.62 0 0 2.35z"/>
   <path class="fil1" d="M36.37 282.5l0 -13.06 46.59 0 0 9.24c0,12.53 3.15,21.6 9.43,27.23 6.28,5.62 14.17,8.44 23.65,8.44 9.48,0 17.31,-2.76 23.47,-8.28 6.17,-5.52 9.25,-14.01 9.25,-25.48l0 -114.96c0,-4.67 -2.61,-7.01 -7.83,-7.01l-30.58 0 0 -35.35 60.81 0c16.13,0 24.19,7.22 24.19,21.66l0 137.57c0,23.14 -7.83,40.71 -23.47,52.7 -15.65,12 -34.38,18 -56.2,18 -21.57,0 -40.19,-6.05 -55.83,-18.15 -15.65,-12.11 -23.48,-29.62 -23.48,-52.55z"/>
   <path class="fil1" d="M223.81 292.05l0 -70.69 -23.47 0 0 -32.17 24.54 0 0 -44.26 44.1 0 0 44.26 41.25 0 0 32.17 -41.25 0 0 65.6c0,11.67 3.73,19.69 11.2,24.04 7.47,4.35 15.71,6.53 24.72,6.53l8.18 -0.64 0 35.35c-3.79,0.64 -8.42,0.96 -13.87,0.96 -6.17,0 -12.09,-0.37 -17.78,-1.12 -5.69,-0.74 -12.21,-2.39 -19.56,-4.93 -7.35,-2.55 -13.7,-5.9 -19.03,-10.03 -5.34,-4.14 -9.84,-10.09 -13.52,-17.84 -3.67,-7.75 -5.51,-16.82 -5.51,-27.23z"/>
   <path class="fil1" d="M337.03 329.95l0 -101.57c0,-4.67 -2.61,-7 -7.83,-7l-14.22 0 0 -32.19 43.03 0c8.3,0 14.34,1.75 18.14,5.26 3.79,3.5 5.69,8.97 5.69,16.4l0 99.67c0,4.67 2.61,7.01 7.82,7.01l14.23 0 0 34.07 -43.04 0c-8.29,0 -14.34,-1.69 -18.13,-5.09 -3.79,-3.4 -5.69,-8.92 -5.69,-16.56z"/>
   <path class="fil2" d="M359.68 138.27c12.24,0 22.16,9.93 22.16,22.18 0,12.24 -9.92,22.17 -22.16,22.17 -12.24,0 -22.16,-9.93 -22.16,-22.17 0,-12.25 9.92,-22.18 22.16,-22.18z"/>
   <path class="fil1" d="M394.96 106.92l2.89 0c1.9,0 2.86,0.74 2.86,2.2 0,1.04 -0.54,1.72 -1.59,2.05l1.84 3.81 -1.52 0 -1.62 -3.6 -0.36 0.01 -1.12 0 0 3.59 -1.38 0 0 -8.06zm1.38 1.08l0 2.31 1.39 0c1.03,0 1.54,-0.39 1.54,-1.17 0,-0.76 -0.49,-1.14 -1.48,-1.14l-1.45 0zm1.19 -3.4c1.15,0 2.22,0.29 3.21,0.87 0.96,0.56 1.72,1.32 2.28,2.28 0.58,0.99 0.87,2.06 0.87,3.21 0,1.15 -0.29,2.22 -0.87,3.21 -0.56,0.96 -1.32,1.72 -2.28,2.28 -0.99,0.58 -2.06,0.87 -3.21,0.87 -1.15,0 -2.22,-0.29 -3.21,-0.87 -0.96,-0.56 -1.72,-1.32 -2.28,-2.28 -0.58,-0.99 -0.87,-2.06 -0.87,-3.21 0,-1.15 0.29,-2.22 0.87,-3.21 0.56,-0.96 1.32,-1.72 2.28,-2.28 0.99,-0.58 2.06,-0.87 3.21,-0.87zm0 0.44c-1.07,0 -2.06,0.27 -2.98,0.82 -0.89,0.52 -1.6,1.23 -2.13,2.12 -0.54,0.92 -0.81,1.91 -0.81,2.98 0,1.07 0.27,2.06 0.81,2.98 0.53,0.89 1.24,1.6 2.13,2.13 0.92,0.54 1.91,0.81 2.98,0.81 1.07,0 2.06,-0.27 2.98,-0.81 0.89,-0.53 1.6,-1.24 2.12,-2.13 0.55,-0.92 0.82,-1.91 0.82,-2.98 0,-1.07 -0.27,-2.06 -0.82,-2.98 -0.52,-0.89 -1.23,-1.6 -2.12,-2.12 -0.92,-0.55 -1.91,-0.82 -2.98,-0.82z"/>
  </g>
 </g>
</svg>
