<?xml version="1.0" encoding="UTF-8"?>
<!DOCTYPE svg PUBLIC "-//W3C//DTD SVG 1.1//EN" "http://www.w3.org/Graphics/SVG/1.1/DTD/svg11.dtd">
<!-- Creator: CorelDRAW -->
<svg xmlns="http://www.w3.org/2000/svg" xml:space="preserve" width="7.6198mm" height="5.1662mm" version="1.1" style="shape-rendering:geometricPrecision; text-rendering:geometricPrecision; image-rendering:optimizeQuality; fill-rule:evenodd; clip-rule:evenodd"
viewBox="0 0 761.98 516.62"
 xmlns:xlink="http://www.w3.org/1999/xlink"
 xmlns:xodm="http://www.corel.com/coreldraw/odm/2003">
 <defs>
  <style type="text/css">
   <![CDATA[
    .fil1 {fill:#FEFEFE}
    .fil0 {fill:#FEFEFE;fill-rule:nonzero}
   ]]>
  </style>
 </defs>
 <g id="Camada_x0020_1">
  <metadata id="CorelCorpID_0Corel-Layer"/>
  <g id="_1335322634528">
   <path class="fil0" d="M335.48 49.61l0 5.56c0,7.98 9.8,11.71 17.9,11.71 10.61,0 18.55,-6.14 18.55,-16.44 0,-10.63 -8.26,-14.04 -16.44,-17.11 -6.89,-2.66 -13.04,-5.07 -13.04,-12.04 0,-6.23 5.02,-9.47 11.5,-9.47 5.1,0 11.01,1.99 11.01,5.73l0 4.32 5.43 0 0 -6.23c0,-5.98 -8.34,-9.13 -16.44,-9.13 -9.31,0 -17.33,4.98 -17.33,15.19 0,10.22 7.77,13.29 15.22,16.2 7.37,2.9 14.26,5.4 14.26,13.12 0,6.81 -5.27,10.55 -12.72,10.55 -6.56,0 -12.47,-2.74 -12.47,-7.73l0 -4.23 -5.43 0zm51.19 -5.23c0,5.56 0.97,10.05 3.48,13.7 3.64,5.65 10.36,8.8 18.38,8.8 7.86,0 14.42,-3.07 18.22,-8.72 2.35,-3.57 3.65,-8.39 3.65,-13.78l0 -32.06 7.45 0 0 -4.82 -20.57 0 0 4.82 7.45 0 0 31.81c0,4.15 -0.81,7.72 -2.51,10.63 -2.51,4.4 -7.53,6.81 -13.69,6.81 -6.15,0 -11.01,-2.33 -13.69,-6.56 -1.7,-2.75 -2.5,-6.48 -2.5,-10.72l0 -31.97 7.44 0 0 -4.82 -20.57 0 0 4.82 7.46 0 0 32.06zm58.22 21.51l20.57 0 0 -4.82 -7.45 0 0 -18.27 12.88 0c3.16,0 5.75,-0.25 8.42,-1.17 6.4,-2.32 10.37,-8.55 10.37,-16.6 0,-7.56 -3.57,-13.29 -9.15,-15.87 -2.68,-1.33 -6.24,-1.66 -9.72,-1.66l-25.92 0 0 4.82 7.45 0 0 48.75 -7.45 0 0 4.82zm13.12 -28.07l0 -25.33 12.31 0c3,0 5.59,0.49 7.69,1.41 3.81,1.99 5.92,5.81 5.92,11.13 0,5.73 -2.51,9.88 -6.72,11.62 -1.87,0.75 -4.13,1.17 -6.89,1.17l-12.31 0zm38.87 -1.5c0,17.11 12.88,30.56 29,30.56 16.19,0 29.07,-13.45 29.07,-30.56 0,-16.86 -12.88,-29.81 -29.07,-29.81 -16.12,0 -29,12.95 -29,29.81zm5.92 0c0,-13.95 10.36,-24.5 23.08,-24.5 12.71,0 23.16,10.55 23.16,24.5 0,14.29 -10.45,25.25 -23.16,25.25 -12.72,0 -23.08,-10.96 -23.08,-25.25zm60.9 29.57l20.48 0 0 -4.82 -7.36 0 0 -19.93 8.17 0c3.65,0 4.95,0.75 6.4,3.57l9.56 16.77c2.02,3.66 2.91,4.41 7.85,4.41l3.08 0 0 -4.82 -1.62 0c-2.18,0 -3.16,-0.25 -4.05,-1.91l-9.47 -16.61c-0.41,-0.92 -0.89,-1.41 -1.3,-1.83l-0.65 -0.58 0 -0.17c7.78,-1.41 12.64,-7.8 12.64,-16.52 0,-7.73 -3.65,-12.54 -9.24,-14.62 -3.15,-1.08 -6.23,-1.33 -10.12,-1.33l-24.37 0 0 4.82 7.45 0 0 48.75 -7.45 0 0 4.82zm13.12 -29.74l0 -23.66 11.09 0c2.91,0 5.59,0.33 7.53,1.07 3.97,1.58 6.24,4.99 6.24,10.3 0,7.56 -4.62,12.29 -11.5,12.29l-13.36 0zm53.53 29.74l20.56 0 0 -4.82 -7.45 0 0 -48.58 15.88 0 0 9.46 5.18 0 0 -14.45 -47.78 0 0 14.45 5.1 0 0 -9.46 15.96 0 0 48.58 -7.45 0 0 4.82zm41.13 0l41.71 0 0 -12.54 -5.1 0 0 7.55 -23.49 0 0 -21.92 21.54 0 0 -4.98 -21.54 0 0 -21.51 21.95 0 0 7.14 5.18 0 0 -12.13 -40.25 0 0 4.82 7.45 0 0 48.75 -7.45 0 0 4.82z"/>
   <path class="fil0" d="M3.49 373.18l0 -26.82 95.71 0 0 18.97c0,25.74 6.46,44.38 19.37,55.94 12.9,11.56 29.1,17.34 48.58,17.34 19.48,0 35.55,-5.67 48.22,-17.01 12.66,-11.34 19,-28.79 19,-52.34l0 -236.17c0,-9.6 -5.36,-14.4 -16.08,-14.4l-62.83 0 0 -72.62 124.94 0c33.12,0 49.68,14.84 49.68,44.49l0 282.62c0,47.55 -16.08,83.64 -48.22,108.28 -32.15,24.64 -70.63,36.96 -115.44,36.96 -44.32,0 -82.56,-12.43 -114.71,-37.29 -32.14,-24.86 -48.22,-60.84 -48.22,-107.95z"/>
   <path class="fil0" d="M388.55 392.81l0 -145.24 -48.22 0 0 -66.08 50.41 0 0 -90.93 90.6 0 0 90.93 84.75 0 0 66.08 -84.75 0 0 134.77c0,23.99 7.67,40.45 23.01,49.4 15.35,8.94 32.27,13.41 50.78,13.41l16.81 -1.31 0 72.62c-7.8,1.31 -17.3,1.96 -28.5,1.96 -12.66,0 -24.84,-0.76 -36.53,-2.29 -11.69,-1.53 -25.08,-4.91 -40.18,-10.14 -15.1,-5.23 -28.13,-12.1 -39.09,-20.61 -10.96,-8.5 -20.22,-20.71 -27.76,-36.63 -7.56,-15.92 -11.33,-34.57 -11.33,-55.94z"/>
   <path class="fil0" d="M621.13 470.66l0 -208.66c0,-9.59 -5.36,-14.39 -16.07,-14.39l-29.22 0 0 -66.12 88.4 0c17.05,0 29.47,3.61 37.26,10.8 7.79,7.2 11.69,18.43 11.69,33.69l0 204.77c0,9.6 5.36,14.4 16.07,14.4l29.23 0 0 70 -88.41 0c-17.04,0 -29.47,-3.49 -37.26,-10.47 -7.79,-6.98 -11.69,-18.32 -11.69,-34.02z"/>
   <path class="fil1" d="M667.67 76.89c25.14,0 45.52,20.39 45.52,45.55 0,25.16 -20.38,45.55 -45.52,45.55 -25.15,0 -45.53,-20.39 -45.53,-45.55 0,-25.16 20.38,-45.55 45.53,-45.55z"/>
   <path class="fil0" d="M740.14 12.48l5.94 0c3.92,0 5.87,1.51 5.87,4.52 0,2.13 -1.09,3.53 -3.26,4.22l3.78 7.81 -3.13 0 -3.31 -7.4 -0.74 0.03 -2.3 0 0 7.37 -2.85 0 0 -16.55zm2.85 2.22l0 4.74 2.85 0c2.1,0 3.16,-0.8 3.16,-2.41 0,-1.55 -1.01,-2.33 -3.03,-2.33l-2.98 0zm2.43 -6.99c2.37,0 4.56,0.6 6.6,1.79 1.97,1.15 3.53,2.71 4.68,4.69 1.19,2.03 1.79,4.23 1.79,6.59 0,2.36 -0.6,4.57 -1.79,6.6 -1.15,1.97 -2.71,3.53 -4.68,4.68 -2.04,1.19 -4.23,1.79 -6.6,1.79 -2.36,0 -4.56,-0.6 -6.59,-1.79 -1.97,-1.15 -3.53,-2.71 -4.68,-4.68 -1.2,-2.03 -1.79,-4.24 -1.79,-6.6 0,-2.36 0.59,-4.56 1.79,-6.59 1.15,-1.98 2.71,-3.54 4.68,-4.69 2.03,-1.19 4.23,-1.79 6.59,-1.79zm0 0.91c-2.19,0 -4.23,0.56 -6.12,1.67 -1.83,1.08 -3.29,2.54 -4.36,4.36 -1.12,1.9 -1.68,3.94 -1.68,6.13 0,2.2 0.56,4.24 1.68,6.13 1.07,1.83 2.53,3.28 4.36,4.36 1.89,1.12 3.93,1.67 6.12,1.67 2.2,0 4.24,-0.55 6.13,-1.67 1.83,-1.08 3.28,-2.53 4.36,-4.36 1.12,-1.89 1.67,-3.93 1.67,-6.13 0,-2.19 -0.55,-4.23 -1.67,-6.13 -1.08,-1.82 -2.53,-3.28 -4.36,-4.36 -1.89,-1.11 -3.93,-1.67 -6.13,-1.67z"/>
  </g>
 </g>
</svg>
